<svg width="60" height="60" viewBox="0 0 60 60" fill="none" xmlns="http://www.w3.org/2000/svg">
<g clip-path="url(#clip0_9_74)">
<path d="M25.4673 24.8777V19.9389V17.4695V15.0001L22.7754 15.0001H20V45.0122C20 45.3787 20.0808 46 20.0808 46C20.0808 46 22.342 46 22.7728 46L25.4646 46V43.5306L25.4647 41.0612V36.6163C25.4647 36.6163 25.4646 30.5228 25.4646 30.1958C25.4646 29.8689 25.4673 24.8777 25.4673 24.8777Z" fill="#008966"/>
<path d="M40.5001 24.8776V19.9388V17.4694V15L37.8082 15H35.0328V45.0122C35.0328 45.3786 35.1136 45.9999 35.1136 45.9999C35.1136 45.9999 37.3748 45.9999 37.8055 45.9999L40.4973 45.9999V43.5305L40.4974 41.0611V36.6162C40.4974 36.6162 40.4973 30.5227 40.4973 30.1957C40.4973 29.8688 40.5001 24.8776 40.5001 24.8776Z" fill="#008966"/>
<path d="M30 0C13.458 0 0 13.458 0 30C0 46.542 13.458 60 30 60C46.542 60 60 46.542 60 30C60 13.458 46.542 0 30 0ZM30 58C14.561 58 2 45.439 2 30C2 14.561 14.561 2 30 2C45.439 2 58 14.561 58 30C58 45.439 45.439 58 30 58Z" fill="#008966"/>
</g>
<defs>
<clipPath id="clip0_9_74">
<rect width="60" height="60" fill="white"/>
</clipPath>
</defs>
</svg>
