<svg width="30" height="30" viewBox="0 0 30 30" fill="none" xmlns="http://www.w3.org/2000/svg">
<path d="M19.8962 1.05147C19.2727 0.394031 18.4557 0.0318604 17.5958 0.0318604C16.9736 0.0318604 16.3639 0.226105 15.8329 0.593539L6.68978 6.92002H3.35214C1.51963 6.92002 0.0286865 8.5658 0.0286865 10.5888V19.3985C0.0286865 21.4215 1.51957 23.0674 3.35214 23.0674H6.67094L15.8328 29.4068C16.3638 29.7743 16.9735 29.9685 17.5958 29.9685C18.4557 29.9685 19.2726 29.6064 19.8963 28.9489C20.2148 28.6132 20.4655 28.218 20.6419 27.7742C20.8273 27.3079 20.9212 26.8113 20.9212 26.2982V15.0067V14.9937V3.70227C20.9212 3.18898 20.8272 2.69237 20.6419 2.22607C20.4655 1.78241 20.2146 1.3872 19.8962 1.05147ZM18.4603 14.9937V15.0067V26.2981C18.4603 26.8564 18.0452 27.2517 17.5958 27.2517C17.4428 27.2517 17.2857 27.2058 17.1398 27.1048L7.88275 20.6995C7.55325 20.4715 7.17227 20.3506 6.78336 20.3506H3.35214C2.8758 20.3506 2.48965 19.9243 2.48965 19.3985V10.5888C2.48965 10.0631 2.8758 9.63678 3.35214 9.63678H6.80226C7.19117 9.63678 7.57203 9.51584 7.9016 9.28786L17.1397 2.89555C17.2857 2.79453 17.4426 2.74868 17.5958 2.74868C18.0451 2.74868 18.4603 3.14415 18.4603 3.70234V14.9937H18.4603Z" fill="white"/>
<path d="M17.5959 30C16.968 30 16.3531 29.8041 15.8175 29.4334L6.6627 23.0988H3.35218C1.50375 23.0989 0 21.4388 0 19.3984V10.5887C0 8.54821 1.50375 6.88816 3.35218 6.88816H6.6816L15.8176 0.566562C16.3533 0.195957 16.9682 0 17.5959 0C18.463 0 19.287 0.365215 19.9161 1.02836C20.2373 1.367 20.4903 1.76558 20.6683 2.21317C20.8552 2.6834 20.9499 3.18433 20.9499 3.70212V26.2979C20.9499 26.8156 20.8552 27.3165 20.6683 27.7868C20.4902 28.2346 20.2373 28.6333 19.9162 28.9716C19.2871 29.6349 18.463 30 17.5959 30ZM3.35218 6.95158C1.53546 6.95158 0.0574455 8.58315 0.0574455 10.5887V19.3984C0.0574455 21.4039 1.53546 23.0356 3.35218 23.0356H6.67925L6.68626 23.0404L15.8481 29.3798C16.3745 29.7441 16.9789 29.9366 17.5959 29.9366C18.4483 29.9366 19.2583 29.5776 19.8766 28.9259C20.1921 28.5932 20.4407 28.2014 20.6156 27.7613C20.7994 27.2992 20.8925 26.8069 20.8925 26.2981V3.70212C20.8925 3.1932 20.7994 2.70078 20.6156 2.23866C20.4408 1.79874 20.1921 1.40702 19.8764 1.07421C19.2582 0.422353 18.4483 0.0634164 17.5959 0.0634164C16.9791 0.0634164 16.3747 0.256012 15.8482 0.620276L6.69809 6.95158H3.35218ZM17.5959 27.2832C17.431 27.2832 17.268 27.2308 17.1245 27.1315L7.86751 20.7262C7.54214 20.5011 7.16731 20.3821 6.7834 20.3821H3.35218C2.86079 20.3821 2.46097 19.9408 2.46097 19.3983V10.5887C2.46097 10.0462 2.86073 9.60492 3.35218 9.60492H6.8023C7.18615 9.60492 7.56098 9.48595 7.88635 9.26082L17.1245 2.86851C17.268 2.76927 17.431 2.71676 17.5959 2.71676C18.0883 2.71676 18.4891 3.15877 18.4891 3.70212V26.2979C18.4891 26.8412 18.0883 27.2832 17.5959 27.2832ZM3.35218 9.66833C2.89244 9.66833 2.51841 10.0812 2.51841 10.5887V19.3984C2.51841 19.9059 2.89244 20.3188 3.35218 20.3188H6.7834C7.17811 20.3188 7.56351 20.4411 7.89801 20.6725L17.155 27.0778C17.2893 27.1707 17.4417 27.2198 17.5959 27.2198C18.0567 27.2198 18.4316 26.8063 18.4316 26.2979V3.70212C18.4316 3.19378 18.0567 2.78017 17.5959 2.78017C17.4417 2.78017 17.2893 2.82926 17.155 2.92223L7.9168 9.3146C7.58223 9.546 7.19683 9.66833 6.80224 9.66833H3.35218Z" fill="white"/>
<path d="M24.3724 8.36789C24.0699 7.69606 23.3312 7.42229 22.7229 7.75617C22.1143 8.09013 21.8663 8.90547 22.1688 9.57724C22.8826 11.1623 23.2598 13.04 23.2598 15.0073C23.2598 17.0053 22.8718 18.9066 22.1377 20.5058C21.8305 21.1751 22.0728 21.9924 22.6791 22.3316C22.8574 22.4313 23.0472 22.4785 23.2342 22.4785C23.6832 22.4785 24.116 22.2062 24.3329 21.7339C25.2409 19.7559 25.7207 17.4299 25.7207 15.0073C25.7209 12.6226 25.2546 10.3267 24.3724 8.36789Z" fill="white"/>
<path d="M23.2344 22.5102C23.0358 22.5102 22.8446 22.4596 22.6662 22.3599C22.0468 22.0134 21.7983 21.1752 22.1122 20.4915C22.8442 18.8968 23.2311 17.0003 23.2311 15.0073C23.2311 13.0447 22.8549 11.1719 22.1432 9.59131C21.9935 9.25882 21.9699 8.88181 22.0771 8.52985C22.1842 8.17789 22.409 7.89302 22.7102 7.72776C22.8862 7.63117 23.0745 7.58215 23.2697 7.58215C23.7515 7.58215 24.184 7.8778 24.3983 8.35374C25.2824 10.317 25.7496 12.6178 25.7495 15.0073C25.7495 17.4349 25.2685 19.7659 24.3585 21.7482C24.1428 22.2182 23.712 22.5102 23.2344 22.5102ZM23.2697 7.64551C23.0835 7.64551 22.9039 7.69224 22.7358 7.78445C22.4484 7.94217 22.2338 8.21403 22.1315 8.54995C22.0293 8.88587 22.0517 9.24563 22.1946 9.56296C22.9103 11.1523 23.2886 13.0349 23.2886 15.0072C23.2886 17.0101 22.8996 18.9165 22.1635 20.52C21.8639 21.1726 22.1011 21.9725 22.6921 22.3032C22.8625 22.3984 23.0449 22.4468 23.2343 22.4468C23.6902 22.4468 24.1014 22.168 24.3073 21.7195C25.2133 19.746 25.6921 17.4249 25.6921 15.0072C25.6922 12.6274 25.227 10.3365 24.3468 8.38183C24.1424 7.92771 23.7297 7.64551 23.2697 7.64551Z" fill="white"/>
<path d="M26.2265 4.03714C25.6179 4.37109 25.3699 5.18637 25.6724 5.85821C26.8748 8.52835 27.5103 11.6839 27.5103 14.9836C27.5103 18.335 26.8565 21.5305 25.6196 24.2251C25.3124 24.8943 25.5548 25.7116 26.161 26.0507C26.3393 26.1505 26.5291 26.1977 26.7163 26.1977C27.1651 26.1977 27.5981 25.9254 27.8148 25.453C29.2256 22.3798 29.9712 18.7595 29.9712 14.9836C29.9712 11.2665 29.2468 7.69278 27.876 4.64879C27.5735 3.97702 26.8351 3.70307 26.2265 4.03714Z" fill="white"/>
<path d="M26.716 26.2292C26.5174 26.2292 26.3262 26.1786 26.1477 26.0788C25.8477 25.911 25.6249 25.6242 25.5203 25.2714C25.4157 24.9185 25.4417 24.5417 25.5937 24.2106C26.8286 21.5204 27.4813 18.3298 27.4813 14.9834C27.4813 11.6884 26.8468 8.53778 25.6464 5.87214C25.3373 5.18572 25.5917 4.34976 26.2135 4.00858C26.3895 3.91194 26.5778 3.86292 26.7731 3.86292C27.2548 3.86292 27.6872 4.15863 27.9015 4.6345C29.2742 7.68274 29.9997 11.2614 29.9997 14.9834C29.9997 18.7642 29.253 22.3895 27.8401 25.4671C27.6245 25.9373 27.1938 26.2292 26.716 26.2292ZM26.7731 3.92633C26.5869 3.92633 26.4072 3.97313 26.2391 4.0654C25.9516 4.22312 25.737 4.49499 25.6347 4.8309C25.5325 5.16682 25.555 5.52658 25.6978 5.84392C26.9022 8.51831 27.5388 11.6787 27.5388 14.9835C27.5388 18.3397 26.884 21.5404 25.645 24.2392C25.4999 24.5553 25.475 24.9149 25.5748 25.2517C25.6747 25.5885 25.8873 25.8621 26.1737 26.0222C26.344 26.1176 26.5265 26.1659 26.716 26.1659C27.1719 26.1659 27.5831 25.8872 27.7889 25.4386C29.1976 22.3697 29.9422 18.7544 29.9422 14.9835C29.9422 11.2711 29.2188 7.70227 27.8501 4.66279C27.6456 4.20847 27.2329 3.92633 26.7731 3.92633Z" fill="white"/>
</svg>
