<svg width="40" height="30" viewBox="0 0 40 30" fill="none" xmlns="http://www.w3.org/2000/svg">
<path d="M20.0657 1.05135C19.4368 0.393909 18.6129 0.0317383 17.7457 0.0317383C17.1182 0.0317383 16.5033 0.225983 15.9678 0.593417L6.74685 6.9199H3.3808C1.53269 6.9199 0.0290527 8.56568 0.0290527 10.5887V19.3984C0.0290527 21.4214 1.53263 23.0673 3.3808 23.0673H6.72785L15.9677 29.4067C16.5032 29.7742 17.1181 29.9684 17.7457 29.9684C18.6129 29.9684 19.4368 29.6063 20.0658 28.9488C20.387 28.6131 20.6398 28.2179 20.8178 27.7741C21.0047 27.3078 21.0994 26.8112 21.0994 26.2981V15.0066V14.9936V3.70215C21.0994 3.18886 21.0047 2.69225 20.8178 2.22595C20.6398 1.78228 20.3868 1.38707 20.0657 1.05135ZM18.6176 14.9936V15.0066V26.298C18.6176 26.8562 18.1989 27.2516 17.7457 27.2516C17.5914 27.2516 17.433 27.2057 17.2858 27.1047L7.94998 20.6994C7.61766 20.4714 7.23344 20.3505 6.84123 20.3505H3.3808C2.9004 20.3505 2.51097 19.9242 2.51097 19.3983V10.5887C2.51097 10.0629 2.9004 9.63666 3.3808 9.63666H6.86029C7.2525 9.63666 7.63661 9.51572 7.96898 9.28774L17.2857 2.89543C17.4329 2.79441 17.5912 2.74856 17.7457 2.74856C18.1988 2.74856 18.6175 3.14402 18.6175 3.70221V14.9936H18.6176Z" fill="#008966"/>
<path d="M17.7456 30C17.1125 30 16.4923 29.8041 15.9521 29.4334L6.71942 23.0988H3.38071C1.51655 23.0989 0 21.4388 0 19.3984V10.5887C0 8.54821 1.51655 6.88816 3.38071 6.88816H6.73848L15.9523 0.566562C16.4925 0.195957 17.1126 0 17.7456 0C18.6202 0 19.4512 0.365215 20.0857 1.02836C20.4096 1.367 20.6647 1.76558 20.8442 2.21317C21.0327 2.6834 21.1282 3.18433 21.1282 3.70212V26.2979C21.1282 26.8156 21.0327 27.3165 20.8442 27.7868C20.6647 28.2346 20.4095 28.6333 20.0858 28.9716C19.4513 29.6349 18.6202 30 17.7456 30ZM3.38071 6.95158C1.54853 6.95158 0.0579345 8.58315 0.0579345 10.5887V19.3984C0.0579345 21.4039 1.54853 23.0356 3.38071 23.0356H6.7361L6.74317 23.0404L15.983 29.3798C16.5139 29.7441 17.1234 29.9366 17.7457 29.9366C18.6053 29.9366 19.4222 29.5776 20.0457 28.9259C20.364 28.5932 20.6147 28.2014 20.7911 27.7613C20.9764 27.2992 21.0703 26.8069 21.0703 26.2981V3.70212C21.0703 3.1932 20.9764 2.70078 20.7911 2.23866C20.6148 1.79874 20.364 1.40702 20.0456 1.07421C19.4221 0.422353 18.6053 0.0634164 17.7457 0.0634164C17.1236 0.0634164 16.5141 0.256012 15.9831 0.620276L6.7551 6.95158H3.38071ZM17.7456 27.2832C17.5794 27.2832 17.4149 27.2308 17.2703 27.1315L7.93448 20.7262C7.60634 20.5011 7.22831 20.3821 6.84114 20.3821H3.38071C2.88514 20.3821 2.48191 19.9408 2.48191 19.3983V10.5887C2.48191 10.0462 2.88508 9.60492 3.38071 9.60492H6.8602C7.24732 9.60492 7.62534 9.48595 7.95348 9.26082L17.2703 2.86851C17.4149 2.76927 17.5794 2.71676 17.7456 2.71676C18.2423 2.71676 18.6465 3.15877 18.6465 3.70212V26.2979C18.6465 26.8412 18.2423 27.2832 17.7456 27.2832ZM3.38071 9.66833C2.91706 9.66833 2.53985 10.0812 2.53985 10.5887V19.3984C2.53985 19.9059 2.91706 20.3188 3.38071 20.3188H6.84114C7.23921 20.3188 7.62789 20.4411 7.96524 20.6725L17.301 27.0778C17.4365 27.1707 17.5902 27.2198 17.7456 27.2198C18.2104 27.2198 18.5885 26.8063 18.5885 26.2979V3.70212C18.5885 3.19378 18.2104 2.78017 17.7456 2.78017C17.5902 2.78017 17.4365 2.82926 17.301 2.92223L7.98418 9.3146C7.64677 9.546 7.25809 9.66833 6.86014 9.66833H3.38071Z" fill="#008966"/>
<path d="M37.3272 6.66664L36.1809 7.88555C36.1809 7.88555 28.9932 15.5284 26.7237 17.9417C24.4186 20.3927 23.5712 21.2937 23.5712 21.2937L21.8491 23L22.4916 23.5L23.1342 24L30.8188 16.031C30.8188 16.031 35.9773 10.5459 38.5565 7.80329C38.5565 7.80329 37.9419 7.23498 37.3272 6.66664Z" fill="#008966"/>
<path d="M40 22.8902L38.7835 21.7131C38.7835 21.7131 31.156 14.3329 28.7476 12.0025C26.3015 9.63566 25.4023 8.7656 25.4023 8.7656L23.5776 7.00002L22.713 7.31487L22.2807 7.4723L21.8484 7.62971L30.0595 15.5748C30.0595 15.5748 35.5337 20.8716 38.2708 23.5199C38.2708 23.5199 39.1354 23.205 40 22.8902Z" fill="#008966"/>
</svg>
