<svg width="30" height="30" viewBox="0 0 30 30" fill="none" xmlns="http://www.w3.org/2000/svg">
<path d="M19.8963 1.05144C19.2728 0.394001 18.4558 0.0318298 17.5959 0.0318298C16.9737 0.0318298 16.364 0.226074 15.833 0.593509L6.6899 6.91999H3.35226C1.51975 6.91999 0.0288086 8.56577 0.0288086 10.5888V19.3985C0.0288086 21.4215 1.51969 23.0674 3.35226 23.0674H6.67106L15.8329 29.4068C16.3639 29.7743 16.9736 29.9685 17.5959 29.9685C18.4558 29.9685 19.2727 29.6064 19.8965 28.9489C20.2149 28.6132 20.4656 28.218 20.642 27.7742C20.8274 27.3079 20.9213 26.8113 20.9213 26.2982V15.0067V14.9937V3.70224C20.9213 3.18895 20.8274 2.69234 20.642 2.22604C20.4656 1.78238 20.2148 1.38716 19.8963 1.05144ZM18.4604 14.9937V15.0067V26.2981C18.4604 26.8563 18.0453 27.2517 17.5959 27.2517C17.4429 27.2517 17.2858 27.2058 17.1399 27.1048L7.88288 20.6995C7.55337 20.4715 7.17239 20.3506 6.78348 20.3506H3.35226C2.87592 20.3506 2.48977 19.9243 2.48977 19.3984V10.5888C2.48977 10.063 2.87592 9.63675 3.35226 9.63675H6.80238C7.19129 9.63675 7.57215 9.51581 7.90172 9.28783L17.1398 2.89552C17.2858 2.7945 17.4427 2.74865 17.5959 2.74865C18.0452 2.74865 18.4604 3.14412 18.4604 3.70231V14.9937H18.4604Z" fill="#008966"/>
<path d="M17.5959 30C16.968 30 16.3531 29.8041 15.8175 29.4334L6.6627 23.0988H3.35218C1.50375 23.0989 0 21.4388 0 19.3984V10.5887C0 8.54821 1.50375 6.88816 3.35218 6.88816H6.6816L15.8176 0.566562C16.3533 0.195957 16.9682 0 17.5959 0C18.463 0 19.287 0.365215 19.9161 1.02836C20.2373 1.367 20.4903 1.76558 20.6683 2.21317C20.8552 2.6834 20.9499 3.18433 20.9499 3.70212V26.2979C20.9499 26.8156 20.8552 27.3165 20.6683 27.7868C20.4902 28.2346 20.2373 28.6333 19.9162 28.9716C19.2871 29.6349 18.463 30 17.5959 30ZM3.35218 6.95158C1.53546 6.95158 0.0574455 8.58315 0.0574455 10.5887V19.3984C0.0574455 21.4039 1.53546 23.0356 3.35218 23.0356H6.67925L6.68626 23.0404L15.8481 29.3798C16.3745 29.7441 16.9789 29.9366 17.5959 29.9366C18.4483 29.9366 19.2583 29.5776 19.8766 28.9259C20.1921 28.5932 20.4407 28.2014 20.6156 27.7613C20.7994 27.2992 20.8925 26.8069 20.8925 26.2981V3.70212C20.8925 3.1932 20.7994 2.70078 20.6156 2.23866C20.4408 1.79874 20.1921 1.40702 19.8764 1.07421C19.2582 0.422353 18.4483 0.0634164 17.5959 0.0634164C16.9791 0.0634164 16.3747 0.256012 15.8482 0.620276L6.69809 6.95158H3.35218ZM17.5959 27.2832C17.431 27.2832 17.268 27.2308 17.1245 27.1315L7.86751 20.7262C7.54214 20.5011 7.16731 20.3821 6.7834 20.3821H3.35218C2.86079 20.3821 2.46097 19.9408 2.46097 19.3983V10.5887C2.46097 10.0462 2.86073 9.60492 3.35218 9.60492H6.8023C7.18615 9.60492 7.56098 9.48595 7.88635 9.26082L17.1245 2.86851C17.268 2.76927 17.431 2.71676 17.5959 2.71676C18.0883 2.71676 18.4891 3.15877 18.4891 3.70212V26.2979C18.4891 26.8412 18.0883 27.2832 17.5959 27.2832ZM3.35218 9.66833C2.89244 9.66833 2.51841 10.0812 2.51841 10.5887V19.3984C2.51841 19.9059 2.89244 20.3188 3.35218 20.3188H6.7834C7.17811 20.3188 7.56351 20.4411 7.89801 20.6725L17.155 27.0778C17.2893 27.1707 17.4417 27.2198 17.5959 27.2198C18.0567 27.2198 18.4316 26.8063 18.4316 26.2979V3.70212C18.4316 3.19378 18.0567 2.78017 17.5959 2.78017C17.4417 2.78017 17.2893 2.82926 17.155 2.92223L7.9168 9.3146C7.58223 9.546 7.19683 9.66833 6.80224 9.66833H3.35218Z" fill="#008966"/>
<path d="M24.3723 8.36789C24.0698 7.69606 23.3311 7.42229 22.7228 7.75617C22.1142 8.09013 21.8661 8.90547 22.1686 9.57724C22.8825 11.1623 23.2597 13.04 23.2597 15.0073C23.2597 17.0053 22.8717 18.9066 22.1376 20.5058C21.8304 21.1751 22.0727 21.9924 22.6789 22.3316C22.8572 22.4313 23.047 22.4785 23.2341 22.4785C23.6831 22.4785 24.1159 22.2062 24.3327 21.7339C25.2408 19.7559 25.7206 17.4299 25.7206 15.0073C25.7207 12.6226 25.2544 10.3267 24.3723 8.36789Z" fill="#008966"/>
<path d="M23.2344 22.5102C23.0358 22.5102 22.8446 22.4596 22.6662 22.3599C22.0468 22.0134 21.7983 21.1752 22.1122 20.4915C22.8442 18.8968 23.2311 17.0003 23.2311 15.0073C23.2311 13.0447 22.8549 11.1719 22.1432 9.59131C21.9935 9.25882 21.9699 8.88181 22.0771 8.52985C22.1842 8.17789 22.409 7.89302 22.7102 7.72776C22.8862 7.63117 23.0745 7.58215 23.2697 7.58215C23.7515 7.58215 24.184 7.8778 24.3983 8.35374C25.2824 10.317 25.7496 12.6178 25.7495 15.0073C25.7495 17.4349 25.2685 19.7659 24.3585 21.7482C24.1428 22.2182 23.712 22.5102 23.2344 22.5102ZM23.2697 7.64551C23.0835 7.64551 22.9039 7.69224 22.7358 7.78445C22.4484 7.94217 22.2338 8.21403 22.1315 8.54995C22.0293 8.88587 22.0517 9.24563 22.1946 9.56296C22.9103 11.1523 23.2886 13.0349 23.2886 15.0072C23.2886 17.0101 22.8996 18.9165 22.1635 20.52C21.8639 21.1726 22.1011 21.9725 22.6921 22.3032C22.8625 22.3984 23.0449 22.4468 23.2343 22.4468C23.6902 22.4468 24.1014 22.168 24.3073 21.7195C25.2133 19.746 25.6921 17.4249 25.6921 15.0072C25.6922 12.6274 25.227 10.3365 24.3468 8.38183C24.1424 7.92771 23.7297 7.64551 23.2697 7.64551Z" fill="#008966"/>
<path d="M26.2264 4.03717C25.6178 4.37112 25.3697 5.18641 25.6722 5.85824C26.8747 8.52838 27.5102 11.6839 27.5102 14.9837C27.5102 18.335 26.8564 21.5306 25.6195 24.2251C25.3123 24.8943 25.5546 25.7117 26.1609 26.0508C26.3392 26.1505 26.529 26.1978 26.7161 26.1978C27.165 26.1978 27.5979 25.9255 27.8147 25.4531C29.2255 22.3798 29.9711 18.7595 29.9711 14.9837C29.9711 11.2665 29.2467 7.69281 27.8759 4.64882C27.5734 3.97706 26.8349 3.7031 26.2264 4.03717Z" fill="#008966"/>
<path d="M26.7159 26.2293C26.5173 26.2293 26.326 26.1787 26.1476 26.0788C25.8476 25.911 25.6247 25.6243 25.5201 25.2714C25.4155 24.9186 25.4416 24.5418 25.5936 24.2106C26.8285 21.5205 27.4812 18.3298 27.4812 14.9834C27.4812 11.6885 26.8467 8.53781 25.6463 5.87217C25.3372 5.18575 25.5916 4.34979 26.2133 4.00861C26.3894 3.91197 26.5777 3.86295 26.773 3.86295C27.2547 3.86295 27.687 4.15866 27.9014 4.63453C29.2741 7.68277 29.9996 11.2614 29.9996 14.9834C29.9996 18.7643 29.2528 22.3895 27.84 25.4671C27.6244 25.9373 27.1936 26.2293 26.7159 26.2293ZM26.773 3.92636C26.5867 3.92636 26.407 3.97316 26.239 4.06543C25.9515 4.22315 25.7369 4.49502 25.6346 4.83093C25.5324 5.16685 25.5548 5.52661 25.6977 5.84395C26.9021 8.51834 27.5387 11.6788 27.5387 14.9835C27.5387 18.3398 26.8838 21.5404 25.6449 24.2393C25.4998 24.5553 25.4749 24.9149 25.5747 25.2517C25.6746 25.5885 25.8872 25.8621 26.1736 26.0223C26.3439 26.1176 26.5264 26.1659 26.7159 26.1659C27.1718 26.1659 27.5829 25.8872 27.7888 25.4386C29.1975 22.3697 29.9421 18.7544 29.9421 14.9835C29.9421 11.2711 29.2187 7.7023 27.85 4.66282C27.6455 4.2085 27.2328 3.92636 26.773 3.92636Z" fill="#008966"/>
</svg>
